<?xml version="1.0" encoding="UTF-8"?>
<svg xmlns="http://www.w3.org/2000/svg" xmlns:xlink="http://www.w3.org/1999/xlink" width="479.2183pt" height="281.6293pt" viewBox="0 0 479.2183 281.6293" version="1.1">
<g id="surface1">
<path style=" stroke:none;fill-rule:evenodd;fill:rgb(21.960449%,25.097656%,53.334045%);fill-opacity:1;" d="M 443.113281 207.539063 C 449.097656 207.539063 453.953125 212.390625 453.953125 218.378906 C 453.953125 224.367188 449.097656 229.21875 443.113281 229.21875 C 437.125 229.21875 432.269531 224.367188 432.269531 218.378906 C 432.269531 212.390625 437.125 207.539063 443.113281 207.539063 Z M 443.113281 209.09375 C 448.238281 209.09375 452.398438 213.25 452.398438 218.378906 C 452.398438 223.507813 448.238281 227.664063 443.113281 227.664063 C 437.984375 227.664063 433.824219 223.507813 433.824219 218.378906 C 433.824219 213.25 437.984375 209.09375 443.113281 209.09375 Z M 440.882813 219.542969 L 440.882813 224.96875 L 439.273438 224.96875 L 439.273438 211.839844 L 442.683594 211.839844 C 443.257813 211.839844 443.75 211.863281 444.152344 211.90625 C 444.554688 211.949219 444.921875 212.015625 445.253906 212.105469 C 446.171875 212.355469 446.871094 212.78125 447.355469 213.378906 C 447.839844 213.976563 448.082031 214.726563 448.082031 215.621094 C 448.082031 216.152344 447.996094 216.628906 447.828125 217.046875 C 447.65625 217.464844 447.417969 217.828125 447.109375 218.136719 C 446.800781 218.445313 446.433594 218.699219 446.003906 218.890625 C 445.574219 219.089844 445.097656 219.234375 444.578125 219.324219 L 444.578125 219.363281 L 448.464844 224.96875 L 446.855469 224.96875 L 442.8125 219.542969 Z M 440.882813 213.289063 L 440.882813 218.09375 L 442.464844 218.09375 C 442.953125 218.09375 443.375 218.078125 443.722656 218.042969 C 444.066406 218.015625 444.378906 217.953125 444.652344 217.871094 C 445.210938 217.699219 445.636719 217.429688 445.941406 217.054688 C 446.242188 216.683594 446.394531 216.195313 446.394531 215.59375 C 446.386719 215.03125 446.242188 214.578125 445.960938 214.234375 C 445.679688 213.890625 445.289063 213.644531 444.789063 213.492188 C 444.554688 213.421875 444.273438 213.371094 443.945313 213.339844 C 443.621094 213.304688 443.207031 213.289063 442.699219 213.289063 Z M 440.882813 213.289063 "/>
<path style=" stroke:none;fill-rule:evenodd;fill:rgb(21.568298%,25.489807%,56.079102%);fill-opacity:1;" d="M 217.847656 213.539063 C 138.886719 203.335938 76.996094 204.429688 41.328125 229.289063 C 31.300781 189.011719 27.089844 152.230469 34.238281 121.257813 C 46.730469 67.132813 80.710938 54.625 112.601563 52.839844 C 152.523438 50.605469 215.082031 63.878906 266.121094 70.9375 C 331.921875 80.039063 390.84375 81.804688 430.863281 58.972656 C 443.433594 92.21875 445.703125 125.8125 439.980469 159.667969 C 434.347656 198.53125 411.132813 218.480469 373.675781 223.074219 C 325.03125 229.035156 270.679688 220.363281 217.847656 213.539063 Z M 184.613281 217.863281 C 137.09375 213.375 91.308594 215.640625 62.875 238.820313 C 53.957031 237.363281 45.042969 235.90625 36.125 234.449219 C 25.125 198.585938 22.785156 160.992188 27.738281 121.941406 C 35.566406 83.882813 55.570313 50.257813 103.484375 47.351563 C 153.148438 44.339844 220.820313 56.445313 287.972656 63.492188 C 335.964844 68.527344 378.136719 64.203125 406 42.808594 C 416.21875 45.847656 426.441406 48.886719 436.664063 51.925781 C 449.59375 88.863281 450.484375 125.164063 444.539063 160.914063 C 436.105469 211.617188 403.308594 229.710938 358.984375 230.160156 C 297.671875 230.78125 233.902344 222.519531 184.613281 217.863281 Z M 87.390625 81.9375 L 87.390625 85.515625 L 91.636719 85.515625 L 91.636719 91.109375 C 87.183594 92.632813 80.109375 92.957031 78.050781 87.273438 C 76.03125 81.695313 78.078125 73.15625 86.277344 73.15625 C 89.46875 73.15625 91.539063 74.125 92.945313 76.847656 L 95.945313 73.148438 C 93.539063 70.515625 90.9375 69.582031 86.488281 69.582031 C 69.265625 69.582031 69.359375 87.78125 76.152344 93.09375 C 81.597656 97.355469 90.292969 96.148438 96.660156 94.53125 L 96.660156 81.9375 Z M 101.609375 96.3125 L 107.21875 96.3125 L 107.21875 85.164063 L 110.46875 85.164063 L 116.5625 96.3125 L 123.207031 96.3125 L 116.078125 84.378906 C 119.382813 83.097656 121.96875 81.03125 121.96875 77.117188 C 121.96875 72.003906 117.699219 70.324219 113.390625 70.167969 L 101.609375 70.128906 Z M 107.21875 81.59375 L 107.21875 73.820313 C 110.988281 73.820313 115.984375 73.046875 115.984375 77.332031 C 115.984375 82.15625 110.4375 81.59375 107.21875 81.59375 Z M 125.222656 70.128906 L 130.152344 70.128906 C 130.152344 72.671875 129.953125 85.929688 130.355469 88.003906 C 131.464844 93.714844 141.589844 93.492188 142.226563 87.554688 C 142.59375 84.097656 142.367188 74.035156 142.367188 70.128906 L 147.296875 70.128906 C 147.296875 73.382813 147.601563 87.328125 146.929688 90.25 C 145.242188 97.574219 134.914063 97.945313 130.054688 95.667969 C 125.640625 93.59375 125.222656 89.910156 125.222656 85.558594 Z M 152.382813 96.3125 L 157.929688 96.3125 L 157.929688 85.558594 C 162.410156 85.558594 167.992188 85.6875 170.8125 81.671875 C 173.582031 77.726563 172.367188 70.792969 164.527344 70.207031 L 152.382813 70.128906 Z M 157.929688 81.867188 L 157.929688 73.820313 C 161.582031 73.820313 166.3125 73.0625 166.3125 77.6875 C 166.3125 82.105469 161.632813 81.867188 157.929688 81.867188 Z M 189.4375 69.582031 C 180.953125 69.582031 175.027344 74.15625 175.027344 83.007813 C 175.027344 91.949219 180.371094 96.863281 189.480469 96.863281 C 198.347656 96.863281 203.84375 92.03125 203.84375 83.203125 C 203.84375 74.34375 198.289063 69.582031 189.4375 69.582031 Z M 189.4375 73.269531 C 195.398438 73.269531 198.203125 78.105469 198.253906 82.996094 C 198.304688 88.335938 195.347656 93.042969 189.722656 93.195313 C 183.792969 93.355469 180.777344 88.976563 180.660156 83.449219 C 180.554688 78.492188 183.054688 73.269531 189.4375 73.269531 "/>
<path style=" stroke:none;fill-rule:evenodd;fill:rgb(99.607849%,12.156677%,22.744751%);fill-opacity:1;" d="M 111.050781 186.898438 L 71.253906 186.898438 L 71.253906 105.019531 L 109.222656 105.019531 C 122.429688 105.019531 133.707031 108.847656 135.753906 121.484375 C 137.257813 130.773438 134.328125 137.433594 127.289063 142.070313 C 137.765625 146.742188 142.222656 159.464844 138.496094 171.003906 C 134.660156 182.894531 120.675781 186.898438 111.050781 186.898438 Z M 108.078125 170.660156 L 91.382813 170.660156 L 91.382813 121.484375 L 105.335938 121.484375 C 112.636719 121.484375 115.636719 123.53125 115.855469 127.546875 C 116.183594 133.628906 112.773438 136.808594 107.164063 136.808594 L 101.894531 136.808594 L 95.269531 151.21875 L 108.308594 151.21875 C 114.570313 151.21875 120.453125 155.71875 119.742188 161.28125 C 119.035156 166.847656 114.371094 170.660156 108.078125 170.660156 Z M 144.671875 105.019531 L 164.570313 105.019531 L 164.570313 186.898438 L 144.671875 186.898438 Z M 257.886719 105.019531 L 257.886719 186.898438 L 237.761719 186.898438 L 237.761719 135.011719 L 224.597656 186.898438 L 205.042969 186.898438 L 192.472656 135.683594 L 192.472656 186.898438 L 172.953125 186.898438 L 172.953125 105.019531 L 204.429688 105.019531 L 215.121094 150.996094 L 225.644531 105.019531 Z M 378.535156 103.644531 C 401.210938 103.644531 419.589844 122.28125 419.589844 145.273438 C 419.589844 168.261719 401.210938 186.898438 378.535156 186.898438 C 355.863281 186.898438 337.480469 168.261719 337.480469 145.273438 C 337.480469 122.28125 355.863281 103.644531 378.535156 103.644531 Z M 378.535156 123.125 C 390.597656 123.125 400.378906 133.039063 400.378906 145.273438 C 400.378906 157.503906 390.597656 167.417969 378.535156 167.417969 C 366.472656 167.417969 356.691406 157.503906 356.691406 145.273438 C 356.691406 133.039063 366.472656 123.125 378.535156 123.125 Z M 305.917969 186.898438 L 266.121094 186.898438 L 266.121094 105.019531 L 304.089844 105.019531 C 317.292969 105.019531 328.570313 108.847656 330.621094 121.484375 C 332.125 130.773438 329.195313 137.433594 322.15625 142.070313 C 332.632813 146.742188 337.085938 159.464844 333.363281 171.003906 C 329.527344 182.894531 315.542969 186.898438 305.917969 186.898438 Z M 302.945313 170.660156 L 286.25 170.660156 L 286.25 121.484375 L 300.199219 121.484375 C 307.503906 121.484375 310.503906 123.53125 310.722656 127.546875 C 311.050781 133.628906 307.640625 136.808594 302.03125 136.808594 L 296.761719 136.808594 L 290.136719 151.21875 L 303.171875 151.21875 C 309.4375 151.21875 315.316406 155.71875 314.609375 161.28125 C 313.902344 166.847656 309.238281 170.660156 302.945313 170.660156 "/>
</g>
</svg>
